<svg xmlns="http://www.w3.org/2000/svg" width="197.312" height="41.47" viewBox="0 0 197.312 41.47">
  <metadata><?xpacket begin="﻿" id="W5M0MpCehiHzreSzNTczkc9d"?>
<x:xmpmeta xmlns:x="adobe:ns:meta/" x:xmptk="Adobe XMP Core 5.6-c138 79.159824, 2016/09/14-01:09:01        ">
   <rdf:RDF xmlns:rdf="http://www.w3.org/1999/02/22-rdf-syntax-ns#">
      <rdf:Description rdf:about=""/>
   </rdf:RDF>
</x:xmpmeta>
                                                                                                    
                                                                                                    
                                                                                                    
                                                                                                    
                                                                                                    
                                                                                                    
                                                                                                    
                                                                                                    
                                                                                                    
                                                                                                    
                                                                                                    
                                                                                                    
                                                                                                    
                                                                                                    
                                                                                                    
                                                                                                    
                                                                                                    
                                                                                                    
                                                                                                    
                                                                                                    
                           
<?xpacket end="w"?></metadata>
<defs>
    <style>
      .cls-1 {
        fill: #f7f8f9;
        fill-rule: evenodd;
      }
    </style>
  </defs>
  <path id="forsyth_logo" data-name="forsyth logo" class="cls-1" d="M121.671,2575.47l-0.841-.49,18.361-31.36,0.841,0.49Zm-80.418-35.46v-2.63H30v20.29h3.092v-8.88h6.885v-2.64H33.092v-6.14h8.16Zm16.421,10.47a7.375,7.375,0,0,0-7.652-7.57,7.556,7.556,0,1,0,0,15.11,7.374,7.374,0,0,0,7.652-7.54m-2.933,0a4.743,4.743,0,1,1-4.718-5.03,4.769,4.769,0,0,1,4.718,5.03m14.294-4.96-0.542-2.45c-2.169,0-4.145.67-4.91,2.45l-0.128-2.26H60.714v14.41h2.9v-6.81c0-4.1,2.8-5.34,5.133-5.34h0.288Zm11.635,8.2c0-2.51-1.626-3.81-4.526-4.86-1.435-.51-2.1-0.99-2.1-1.91a1.745,1.745,0,0,1,2.008-1.62,5.533,5.533,0,0,1,3.251.92l0.542-2.42a8.072,8.072,0,0,0-3.761-.92c-2.87,0-4.847,1.72-4.847,4.14,0,2.32,1.594,3.65,4.464,4.7,1.339,0.48,2.071,1.08,2.071,2.1,0,0.99-.923,1.72-2.295,1.72a7.714,7.714,0,0,1-4.781-1.78l0.669,3.18a7.711,7.711,0,0,0,4.048,1.05c3.506,0,5.26-1.97,5.26-4.3M96.1,2543.26H93.328l-2.709,6.65c-0.383.95-.829,2.03-1.211,3.15H89.343c-0.414-1.18-.86-2.32-1.242-3.25l-2.678-6.55h-3l5.388,13.14c-1.69,4.13-3.507,6.01-6.153,7l1.753,1.78c2.837-1.28,5.2-3.6,7.363-8.91Zm12.21,0h-5.1v-4.42l-2.869,1.49v2.93H97.505v2.32h2.837v7.92c0,2.86,2.1,4.39,4.718,4.39a4.545,4.545,0,0,0,1.307-.13l0.574-2.57a4.8,4.8,0,0,1-1.593.22,1.888,1.888,0,0,1-2.137-1.81v-8.02H107.8Zm15.238,14.41v-9.54c0-3.22-2.328-5.22-5.484-5.22a5.338,5.338,0,0,0-4.24,1.53v-9.42h-2.9v22.65h2.9v-9.26c0-1.49,1.148-3.02,3.475-3.02,2.423,0,3.348,1.53,3.348,3.02v9.26h2.9Zm16.313,3.76v2.08h0.814a2.6,2.6,0,0,0,.641-0.05,0.975,0.975,0,0,0,.745-1.02,1,1,0,0,0-.3-0.77,1.556,1.556,0,0,0-1.044-.24h-0.856Zm-1.138-.96h2.037a4.1,4.1,0,0,1,1.036.09,1.879,1.879,0,0,1,1.421,1.9,1.8,1.8,0,0,1-1.456,1.89,4.227,4.227,0,0,1-1.018.08h-0.882v2.03h-1.138v-5.99Zm6.41,5.99h-1.018v-4.24h1.018v4.24Zm0-4.91h-1.018v-1.02h1.018v1.02Zm3.046,1.45a1.152,1.152,0,0,0-1.1,1.3,1.2,1.2,0,0,0,1.155,1.35,1.158,1.158,0,0,0,1.095-1.35,1.2,1.2,0,0,0-1.147-1.3m0.052,3.59a2.156,2.156,0,0,1-2.224-2.27,2.2,2.2,0,1,1,2.224,2.27m2.994-4.37h1.037v0.5a1.023,1.023,0,0,1,.333-0.33,1.762,1.762,0,0,1,.983-0.3,1.4,1.4,0,0,1,1.122.51,2.181,2.181,0,0,1,.266,1.36v2.5h-1.019v-2.16a3.024,3.024,0,0,0-.034-0.65,0.7,0.7,0,0,0-.7-0.57,0.9,0.9,0,0,0-.786.48,2.388,2.388,0,0,0-.163,1.06v1.84h-1.037v-4.24Zm7.635,1.58a0.917,0.917,0,0,0-.959-0.9,1.016,1.016,0,0,0-1.045.9h2Zm1.163,1.71a2.511,2.511,0,0,1-2.087,1.08,2.108,2.108,0,0,1-2.2-2.27,2.056,2.056,0,0,1,2.13-2.23,1.925,1.925,0,0,1,1.686.8,3.139,3.139,0,0,1,.436,1.65h-3.166a1.159,1.159,0,0,0,1.215,1.06,1.248,1.248,0,0,0,1.113-.59Zm3.7-1.71a0.914,0.914,0,0,0-.958-0.9,1.015,1.015,0,0,0-1.044.9h2Zm1.165,1.71a2.511,2.511,0,0,1-2.088,1.08,2.109,2.109,0,0,1-2.2-2.27,2.056,2.056,0,0,1,2.131-2.23,1.93,1.93,0,0,1,1.686.8,3.139,3.139,0,0,1,.436,1.65h-3.166a1.158,1.158,0,0,0,1.215,1.06,1.248,1.248,0,0,0,1.112-.59Zm1.847-3.29v0.6a1.339,1.339,0,0,1,1.37-.7v1.05a1.3,1.3,0,0,0-1.37,1.72v1.57h-0.992v-4.24h0.992Zm3.175,4.24H168.89v-4.24h1.018v4.24Zm0-4.91H168.89v-1.02h1.018v1.02Zm1.172,0.67h1.037v0.5a1.023,1.023,0,0,1,.333-0.33,1.762,1.762,0,0,1,.983-0.3,1.4,1.4,0,0,1,1.122.51,2.188,2.188,0,0,1,.265,1.36v2.5H173.8v-2.16a3.114,3.114,0,0,0-.033-0.65,0.7,0.7,0,0,0-.7-0.57,0.9,0.9,0,0,0-.787.48,2.4,2.4,0,0,0-.162,1.06v1.84H171.08v-4.24Zm6.564,0.78a1.04,1.04,0,0,0-1.053,1.16,1.011,1.011,0,0,0,1.061,1.12,0.984,0.984,0,0,0,1.053-1.08,1.059,1.059,0,0,0-1.061-1.2m2.055-.78v3.48a2.348,2.348,0,0,1-.275,1.53,2.112,2.112,0,0,1-1.78.65c-1.523,0-1.823-.65-1.968-1.33h1.13a0.769,0.769,0,0,0,.873.52,0.946,0.946,0,0,0,.847-0.34,1.594,1.594,0,0,0,.153-0.97,1.937,1.937,0,0,1-1.283.46,1.827,1.827,0,0,1-1.858-2.03,1.921,1.921,0,0,1,1.927-2.1,1.394,1.394,0,0,1,1.214.57v-0.44h1.02Zm4.346-.73v3.96h0.48a3.865,3.865,0,0,0,1.412-.14c0.435-.16.9-0.54,0.9-1.79a1.908,1.908,0,0,0-.924-1.87,2.557,2.557,0,0,0-1.267-.16h-0.6Zm-1.129-1.02h2.164a2.906,2.906,0,0,1,1.789.46,3.088,3.088,0,0,1,1.164,2.58,2.868,2.868,0,0,1-1.241,2.59,3.834,3.834,0,0,1-1.942.36h-1.934v-5.99Zm6.811,5.99h-1.018v-4.24h1.018v4.24Zm0-4.91h-1.018v-1.02h1.018v1.02Zm1.592,3.65a1.484,1.484,0,0,0,1.231.55,0.714,0.714,0,0,0,.848-0.5,0.46,0.46,0,0,0-.446-0.37c-0.145-.03-0.847-0.16-1-0.2a1.274,1.274,0,0,1-1.206-1.21,1.582,1.582,0,0,1,1.831-1.38,2.4,2.4,0,0,1,1.412.41,1.765,1.765,0,0,1,.436.38l-0.728.67a1.2,1.2,0,0,0-1.163-.65c-0.488,0-.711.22-0.711,0.44,0,0.3.317,0.39,0.866,0.48a2.885,2.885,0,0,1,1.411.42,1.139,1.139,0,0,1,.436.9,1.666,1.666,0,0,1-1.925,1.45,2.937,2.937,0,0,1-2.054-.76Zm6.845-1.48a0.994,0.994,0,0,0-.967-0.72,1.129,1.129,0,0,0-1.061,1.31,1.154,1.154,0,0,0,1.078,1.33,1.082,1.082,0,0,0,1.027-.83l0.882,0.45a2.024,2.024,0,0,1-1.926,1.33,2.12,2.12,0,0,1-2.123-2.25,2.156,2.156,0,0,1,2.157-2.25,1.975,1.975,0,0,1,1.849,1.2Zm3.517-.72a1.152,1.152,0,0,0-1.1,1.3,1.2,1.2,0,0,0,1.155,1.35,1.16,1.16,0,0,0,1.1-1.35,1.2,1.2,0,0,0-1.148-1.3m0.052,3.59a2.156,2.156,0,0,1-2.224-2.27,2.2,2.2,0,1,1,2.224,2.27m6.315-4.37-1.4,4.24H205.54l-1.386-4.24h1.061l0.89,2.92,0.873-2.92h1.07Zm3.449,1.58a0.916,0.916,0,0,0-.96-0.9,1.016,1.016,0,0,0-1.043.9h2Zm1.163,1.71a2.508,2.508,0,0,1-2.088,1.08,2.108,2.108,0,0,1-2.2-2.27,2.056,2.056,0,0,1,2.131-2.23,1.928,1.928,0,0,1,1.686.8,3.16,3.16,0,0,1,.437,1.65H209.46a1.159,1.159,0,0,0,1.216,1.06,1.248,1.248,0,0,0,1.112-.59Zm1.686-3.29v0.6a1.341,1.341,0,0,1,1.37-.7v1.05a1.3,1.3,0,0,0-1.37,1.72v1.57h-0.992v-4.24h0.992Zm3.346,4.24h-1.019v-4.24h1.019v4.24Zm0-4.91h-1.019v-1.02h1.019v1.02Zm4,2.25a0.915,0.915,0,0,0-.958-0.9,1.014,1.014,0,0,0-1.043.9h2Zm1.165,1.71a2.512,2.512,0,0,1-2.088,1.08,2.109,2.109,0,0,1-2.2-2.27,2.056,2.056,0,0,1,2.131-2.23,1.924,1.924,0,0,1,1.685.8,3.132,3.132,0,0,1,.437,1.65h-3.165a1.157,1.157,0,0,0,1.214,1.06,1.25,1.25,0,0,0,1.113-.59Zm1.223-.31a1.484,1.484,0,0,0,1.233.55,0.713,0.713,0,0,0,.846-0.5,0.46,0.46,0,0,0-.445-0.37c-0.145-.03-0.846-0.16-1-0.2a1.274,1.274,0,0,1-1.206-1.21,1.582,1.582,0,0,1,1.831-1.38,2.39,2.39,0,0,1,1.411.41,1.755,1.755,0,0,1,.437.38l-0.727.67a1.2,1.2,0,0,0-1.163-.65c-0.488,0-.71.22-0.71,0.44,0,0.3.316,0.39,0.863,0.48a2.89,2.89,0,0,1,1.412.42,1.136,1.136,0,0,1,.436.9,1.665,1.665,0,0,1-1.924,1.45,2.936,2.936,0,0,1-2.055-.76Zm-84.221,4.84v2.09h0.814a2.179,2.179,0,0,0,.641-0.06,0.965,0.965,0,0,0,.745-1.01,0.976,0.976,0,0,0-.3-0.77,1.561,1.561,0,0,0-1.044-.25h-0.856Zm-1.138-.95h2.037a4.1,4.1,0,0,1,1.036.09,1.879,1.879,0,0,1,1.421,1.9,1.8,1.8,0,0,1-1.456,1.89,4.227,4.227,0,0,1-1.018.08h-0.882v2.03h-1.138v-5.99Zm6.085,1.74v0.61a1.339,1.339,0,0,1,1.37-.7v1.05a1.5,1.5,0,0,0-.925.25,1.572,1.572,0,0,0-.445,1.47v1.57h-0.992v-4.25h0.992Zm3.962,0.79a1.149,1.149,0,0,0-1.1,1.29,1.207,1.207,0,0,0,1.155,1.36,1.16,1.16,0,0,0,1.1-1.35,1.2,1.2,0,0,0-1.147-1.3m0.051,3.59a2.157,2.157,0,0,1-2.225-2.27,2.2,2.2,0,1,1,2.225,2.27m4.082-3.65v3.52h-1.027v-3.52h-0.642v-0.73h0.642v-0.49c-0.008-.6-0.008-1.26,1.378-1.26a5.432,5.432,0,0,1,.582.03v0.87a1.382,1.382,0,0,0-.325-0.03,0.586,0.586,0,0,0-.54.21,0.726,0.726,0,0,0-.068.32v0.35h0.933v0.73h-0.933Zm3.517,0.06a1.149,1.149,0,0,0-1.1,1.29,1.206,1.206,0,0,0,1.155,1.36,1.159,1.159,0,0,0,1.1-1.35,1.2,1.2,0,0,0-1.147-1.3m0.051,3.59a2.156,2.156,0,0,1-2.224-2.27,2.2,2.2,0,1,1,2.224,2.27m6.743-4.38v4.25h-1.027v-0.43a1.9,1.9,0,0,1-1.386.53,1.425,1.425,0,0,1-1.189-.49,2.047,2.047,0,0,1-.291-1.4v-2.46h1.035v2.44a1.553,1.553,0,0,0,.035.43,0.754,0.754,0,0,0,.795.53,0.945,0.945,0,0,0,.83-0.45,2.274,2.274,0,0,0,.171-1.14v-1.81h1.027Zm1.181,0h1.035v0.51a1.168,1.168,0,0,1,.334-0.34,1.84,1.84,0,0,1,.984-0.29,1.4,1.4,0,0,1,1.121.51,2.175,2.175,0,0,1,.267,1.36v2.5h-1.02v-2.17a3.057,3.057,0,0,0-.033-0.64,0.7,0.7,0,0,0-.7-0.57,0.905,0.905,0,0,0-.788.48,2.388,2.388,0,0,0-.163,1.06v1.84H164.4v-4.25Zm7.41,1.21a0.873,0.873,0,0,0-.751-0.39,1.124,1.124,0,0,0-1.028,1.29c0,0.08.01,1.35,1.01,1.35a1.084,1.084,0,0,0,1-1.31,1.834,1.834,0,0,0-.233-0.94m1.258-2.95v5.99h-1.018v-0.41a1.466,1.466,0,0,1-1.188.54,1.939,1.939,0,0,1-1.9-2.16,2.091,2.091,0,0,1,1.943-2.34,1.489,1.489,0,0,1,1.146.47v-2.09h1.018Zm9.268,4.32a3.275,3.275,0,0,1-.521.9,2.684,2.684,0,0,1-2.089.92,3.166,3.166,0,0,1,.042-6.3,2.418,2.418,0,0,1,2.466,1.85l-1.13.3a1.486,1.486,0,0,0-.222-0.59,1.272,1.272,0,0,0-1.087-.53c-0.984,0-1.668.81-1.668,2.09,0,1.37.727,2.12,1.676,2.12a1.4,1.4,0,0,0,1.155-.58,2.061,2.061,0,0,0,.316-0.62Zm1.729-4.32v2.18a1.886,1.886,0,0,1,1.361-.56,1.552,1.552,0,0,1,1.172.46,1.684,1.684,0,0,1,.36,1.29v2.62h-1.011v-2.34a1.8,1.8,0,0,0-.068-0.6,0.725,0.725,0,0,0-.744-0.46,1.077,1.077,0,0,0-1.035.77,2.5,2.5,0,0,0-.035.68v1.95h-1.026v-5.99h1.026Zm6.537,3.88a3.177,3.177,0,0,1-.9.25,0.768,0.768,0,0,0-.855.59,0.569,0.569,0,0,0,.692.5,1.058,1.058,0,0,0,1-.5,0.835,0.835,0,0,0,.059-0.38v-0.46Zm-2.643-.89a1.328,1.328,0,0,1,.17-0.63,1.911,1.911,0,0,1,1.7-.74,2.629,2.629,0,0,1,1.285.27,1.117,1.117,0,0,1,.512,1.16v2.25a0.88,0.88,0,0,0,.188.69H190.6c-0.008-.1-0.025-0.27-0.025-0.33a2.006,2.006,0,0,1-1.267.43,1.382,1.382,0,0,1-1.549-1.32,1.291,1.291,0,0,1,.137-0.58,1.744,1.744,0,0,1,1.378-.82,9.451,9.451,0,0,0,1.326-.32,0.589,0.589,0,0,0-.727-0.64,0.905,0.905,0,0,0-.762.27,0.488,0.488,0,0,0-.1.37Zm4.722-1.25h1.037v0.51a1.148,1.148,0,0,1,.333-0.34,1.838,1.838,0,0,1,.984-0.29,1.4,1.4,0,0,1,1.121.51,2.181,2.181,0,0,1,.266,1.36v2.5H195.4v-2.17a2.968,2.968,0,0,0-.034-0.64,0.7,0.7,0,0,0-.7-0.57,0.9,0.9,0,0,0-.786.48,2.388,2.388,0,0,0-.163,1.06v1.84h-1.037v-4.25Zm6.522,0.79a1.039,1.039,0,0,0-1.053,1.16,1.011,1.011,0,0,0,1.061,1.12,0.985,0.985,0,0,0,1.053-1.08,1.055,1.055,0,0,0-1.061-1.2m2.053-.79v3.49a2.351,2.351,0,0,1-.273,1.53,2.113,2.113,0,0,1-1.78.65c-1.525,0-1.823-.66-1.97-1.34h1.131a0.766,0.766,0,0,0,.873.53,0.948,0.948,0,0,0,.847-0.34,1.594,1.594,0,0,0,.153-0.97,1.938,1.938,0,0,1-1.282.45,1.827,1.827,0,0,1-1.858-2.03,1.911,1.911,0,0,1,1.926-2.09,1.4,1.4,0,0,1,1.214.57v-0.45h1.019Zm3.912,1.58a0.915,0.915,0,0,0-.96-0.89,1.016,1.016,0,0,0-1.044.89h2Zm1.163,1.72a2.508,2.508,0,0,1-2.088,1.08,2.108,2.108,0,0,1-2.2-2.27,2.05,2.05,0,0,1,2.13-2.23,1.955,1.955,0,0,1,1.686.79,3.2,3.2,0,0,1,.437,1.66h-3.166a1.151,1.151,0,0,0,1.215,1.05,1.244,1.244,0,0,0,1.112-.58Z" transform="translate(-30 -2535.03)"/>
</svg>
