<svg xmlns="http://www.w3.org/2000/svg" viewBox="0 0 190.09 26.72"><defs><style>.cls-1{fill:#fff;}</style></defs><title>Asset 2</title><g id="Layer_2" data-name="Layer 2"><g id="Layer_1-2" data-name="Layer 1"><path class="cls-1" d="M12,14.07s0-7.58.08-10.26L9.22,14.07h-3L3.41,3.81c.06,1.92.08,10.26.08,10.26H.14V.35h5L7.74,10,10.29.35h5V14.07Z"/><path class="cls-1" d="M25.22,7.58v6.49H21.84V7.68L16.68.35h3.93l3,4.65L26.5.35h3.91Z"/><path class="cls-1" d="M42.95,14.07c0-.33.1-11.66.1-11.66L38.57,14.07h-.89L33.11,2.41s.16,11.43.16,11.66H32V.35h1.54L38.17,12,42.62.35h1.61V14.07Z"/><path class="cls-1" d="M53.13,0C56.77,0,59,2.62,59,7c0,3.52-1.57,7.39-5.87,7.39-4.69,0-5.95-4.3-5.95-7.25C47.19,4.63,48.22,0,53.13,0Zm-.06,13.26c3.54,0,4.55-3.58,4.55-6.26,0-2.1-.89-5.87-4.49-5.87-3.4,0-4.57,3.29-4.57,6.08C48.57,9,49.13,13.26,53.08,13.26Z"/><path class="cls-1" d="M72.21,9c0,3-1.13,5.46-5.13,5.46-1.34,0-5.13-.31-5.13-5.19V.35h1.28V9.58c0,3.07,2.27,3.63,3.87,3.63,2.45,0,3.81-1.13,3.81-4V.35h1.3Z"/><path class="cls-1" d="M79.67,1.5V14.07h-1.3V1.5H74.05V.35H84V1.5Z"/><path class="cls-1" d="M95.59,14.07V7.64H87.15v6.43H85.87V.35h1.28V6.47h8.44V.35h1.3V14.07Z"/><path class="cls-1" d="M100.86,11.82v1.91a5.1,5.1,0,0,1-.89,3.42l-.64-.45a4.1,4.1,0,0,0,.74-2.62h-.74V11.82Z"/><path class="cls-1" d="M120.57,14.07s0-7.58.08-10.26l-2.86,10.26h-3L112,3.81c.06,1.92.08,10.26.08,10.26h-3.34V.35h5l2.59,9.6,2.55-9.6h5V14.07Z"/><path class="cls-1" d="M133.79,7.58v6.49h-3.38V7.68L125.26.35h3.93l3,4.65L135.08.35H139Z"/><path class="cls-1" d="M149.89,14.07l-8-11.86V14.07h-1.28V.35h1.28L150,12.09s-.1-11.45-.1-11.74h1.28V14.07Z"/><path class="cls-1" d="M160.08,0c3.63,0,5.87,2.62,5.87,7,0,3.52-1.57,7.39-5.87,7.39-4.69,0-5.95-4.3-5.95-7.25C154.13,4.63,155.16,0,160.08,0ZM160,13.26c3.54,0,4.55-3.58,4.55-6.26,0-2.1-.89-5.87-4.49-5.87-3.4,0-4.57,3.29-4.57,6.08C155.51,9,156.07,13.26,160,13.26Z"/><path class="cls-1" d="M176.62,3.65a3.89,3.89,0,0,0-.56-1.19,3.52,3.52,0,0,0-3-1.4c-2.37,0-3.23,1.3-3.23,2.45,0,1.77,1.59,2.22,2.92,2.57l1.32.35c2.47.66,4,1.73,4,3.89a3.78,3.78,0,0,1-1.69,3.13,5.58,5.58,0,0,1-3.42,1c-2.62,0-4.55-1.13-5.11-3.81l1.3-.68a3.58,3.58,0,0,0,.31,1.54c.39.85,1.42,1.81,3.5,1.81,2.53,0,3.79-1.36,3.79-2.92s-1-2.24-2.92-2.74l-1.58-.41c-1.55-.41-3.71-1.13-3.71-3.65C168.57,1.65,170,0,173.1,0a4.58,4.58,0,0,1,4.72,3Z"/><path class="cls-1" d="M180.64,14.07V.35h9V1.54h-7.66v4.9h6.94V7.64h-6.94v5.23h8.15v1.21Z"/><path class="cls-1" d="M2.33,25.52l0-.27a1.71,1.71,0,0,1-1,.36A1.13,1.13,0,0,1,0,24.53c0-.76.58-1.06,1.25-1.18a8,8,0,0,0,1.08-.26c0-.27-.08-.53-.6-.53s-.71.34-.71.53L.16,23c0-.23.06-1.13,1.53-1.13,1,0,1.47.38,1.47,1v2a.81.81,0,0,0,.15.57Zm0-1.74a2.17,2.17,0,0,1-.67.2c-.38.06-.77.13-.77.48s.15.43.57.43.86-.2.86-.64Z"/><path class="cls-1" d="M6.92,22v.32a1.25,1.25,0,0,1,1-.42A1.44,1.44,0,0,1,9,22.42a2.11,2.11,0,0,1,.47,1.37A2,2,0,0,1,9.12,25a1.49,1.49,0,0,1-1.25.64,1.35,1.35,0,0,1-1-.39v1.43H6.08V22Zm.83.7c-.6,0-.84.55-.84,1s.29,1.08.86,1.08c.33,0,.84-.2.84-1.07S8.15,22.72,7.74,22.72Z"/><path class="cls-1" d="M11,22v.5a1.12,1.12,0,0,1,1-.57h.07v.86a1,1,0,0,0-1.05.64A1.78,1.78,0,0,0,11,24v1.5h-.81V22Z"/><path class="cls-1" d="M14.11,25.63a1.86,1.86,0,1,1,1.78-1.87A1.75,1.75,0,0,1,14.11,25.63Zm0-.77A.94.94,0,0,0,15,23.8a1,1,0,0,0-.95-1.13c-.49,0-.9.36-.9,1.06A1,1,0,0,0,14.11,24.85Z"/><path class="cls-1" d="M17.42,22v3.82c0,.22,0,.82-1.09.82h-.2v-.76a.76.76,0,0,0,.32-.08c.13-.08.14-.18.14-.36V22Zm-.83-.55v-.85h.83v.85Z"/><path class="cls-1" d="M19,23.94a1,1,0,0,0,1,.87,1,1,0,0,0,.92-.48l.71.41a2,2,0,0,1-1.71.89,1.74,1.74,0,0,1-1.8-1.88,1.69,1.69,0,0,1,1.76-1.84c1.34,0,1.72,1.07,1.72,2Zm1.67-.62a.76.76,0,0,0-.79-.74.84.84,0,0,0-.85.74Z"/><path class="cls-1" d="M25.29,24.53a1.64,1.64,0,0,1-1.58,1.09A1.74,1.74,0,0,1,22,23.77a1.77,1.77,0,0,1,1.77-1.86,1.63,1.63,0,0,1,1.51,1l-.75.35a.81.81,0,0,0-.8-.59c-.57,0-.86.5-.86,1.09s.32,1.09.88,1.09a.91.91,0,0,0,.85-.69Z"/><path class="cls-1" d="M25.46,22H26V20.77h.84V22h.75v.6h-.75v1.74a.57.57,0,0,0,.08.37.46.46,0,0,0,.32.11,1.39,1.39,0,0,0,.35,0v.71a3.76,3.76,0,0,1-.6.06c-.75,0-1-.27-1-.85V22.61h-.51Z"/><path class="cls-1" d="M31.7,25.63a1.86,1.86,0,1,1,1.78-1.87A1.75,1.75,0,0,1,31.7,25.63Zm0-.77a.94.94,0,0,0,.9-1.06,1,1,0,0,0-.95-1.13c-.49,0-.9.36-.9,1.06A1,1,0,0,0,31.7,24.85Z"/><path class="cls-1" d="M35.11,22.61v2.91h-.84V22.61h-.53V22h.53v-.48c0-.61.18-1,1.13-1a3.73,3.73,0,0,1,.48,0v.71l-.27,0c-.48,0-.5.27-.5.48V22h.76v.6Z"/><path class="cls-1" d="M38,22h.51V20.77h.84V22h.75v.6H39.3v1.74a.57.57,0,0,0,.08.37.46.46,0,0,0,.32.11,1.39,1.39,0,0,0,.35,0v.71a3.76,3.76,0,0,1-.6.06c-.75,0-1-.27-1-.85V22.61H38Z"/><path class="cls-1" d="M42.93,25.52V23.47c0-.51-.25-.76-.66-.76a.86.86,0,0,0-.88.87v1.94h-.84V20.58h.84v1.8a1.54,1.54,0,0,1,1.11-.46,1.14,1.14,0,0,1,1.25,1.24v2.37Z"/><path class="cls-1" d="M45.33,23.94a1,1,0,0,0,1,.87,1,1,0,0,0,.92-.48l.71.41a2,2,0,0,1-1.71.89,1.74,1.74,0,0,1-1.8-1.88,1.69,1.69,0,0,1,1.76-1.84c1.34,0,1.72,1.07,1.72,2ZM47,23.32a.76.76,0,0,0-.79-.74.84.84,0,0,0-.85.74Z"/><path class="cls-1" d="M51.63,21.4v1.23H53.7v.79H51.63v2.09h-.92V20.58H54v.83Z"/><path class="cls-1" d="M56,25.63a1.86,1.86,0,1,1,1.78-1.87A1.75,1.75,0,0,1,56,25.63Zm0-.77a.94.94,0,0,0,.9-1.06A1,1,0,0,0,56,22.67c-.49,0-.9.36-.9,1.06A1,1,0,0,0,56,24.85Z"/><path class="cls-1" d="M59.28,22v.5a1.12,1.12,0,0,1,1-.57h.07v.86a1,1,0,0,0-1.05.64,1.78,1.78,0,0,0-.06.57v1.5h-.81V22Z"/><path class="cls-1" d="M63.22,23.12a1,1,0,0,0-1-.53c-.16,0-.58,0-.58.36s.21.3.71.39l.57.1a1,1,0,0,1,.94,1c0,.64-.61,1.2-1.58,1.2A2.26,2.26,0,0,1,60.65,25l.63-.51a1.2,1.2,0,0,0,1,.45c.5,0,.69-.26.69-.41s-.2-.28-.52-.34L62,24.1c-.27,0-1.22-.22-1.22-1s.67-1.14,1.51-1.14a2,2,0,0,1,1.5.65Z"/><path class="cls-1" d="M67.44,22l-.93,3.19a2.9,2.9,0,0,1-.6,1.3,1,1,0,0,1-.71.21,1.94,1.94,0,0,1-.5,0v-.73h.23c.46,0,.54-.28.57-.37L64.23,22h.9l.78,2.61L66.58,22Z"/><path class="cls-1" d="M67.53,22H68V20.77h.84V22h.75v.6h-.75v1.74a.57.57,0,0,0,.08.37.46.46,0,0,0,.32.11,1.39,1.39,0,0,0,.35,0v.71a3.74,3.74,0,0,1-.6.06c-.75,0-1-.27-1-.85V22.61h-.51Z"/><path class="cls-1" d="M72.5,25.52V23.47c0-.51-.25-.76-.66-.76a.86.86,0,0,0-.88.87v1.94h-.84V20.58H71v1.8a1.54,1.54,0,0,1,1.11-.46,1.14,1.14,0,0,1,1.25,1.24v2.37Z"/><path class="cls-1" d="M76.35,25.52V20.58h.91v4.94Z"/><path class="cls-1" d="M79.12,22v.41a1.35,1.35,0,0,1,1.08-.52,1.07,1.07,0,0,1,1.13,1.17v2.44H80.5v-2c0-.39-.1-.82-.62-.82a.66.66,0,0,0-.44.16c-.25.21-.33.5-.33,1.11v1.52h-.85V22Z"/><path class="cls-1" d="M84.49,23.12a1,1,0,0,0-1-.53c-.16,0-.58,0-.58.36s.21.3.71.39l.57.1a1,1,0,0,1,.94,1c0,.64-.61,1.2-1.58,1.2A2.26,2.26,0,0,1,81.92,25l.63-.51a1.2,1.2,0,0,0,1,.45c.5,0,.69-.26.69-.41s-.2-.28-.52-.34l-.43-.08c-.27,0-1.22-.22-1.22-1s.67-1.14,1.51-1.14a2,2,0,0,1,1.5.65Z"/><path class="cls-1" d="M85.44,22h.51V20.77h.84V22h.75v.6h-.75v1.74a.57.57,0,0,0,.08.37.46.46,0,0,0,.32.11,1.39,1.39,0,0,0,.35,0v.71a3.76,3.76,0,0,1-.6.06c-.75,0-1-.27-1-.85V22.61h-.51Z"/><path class="cls-1" d="M88.06,21.47v-.85h.83v.85Zm0,4V22h.83v3.5Z"/><path class="cls-1" d="M89.38,22h.51V20.77h.84V22h.75v.6h-.75v1.74a.57.57,0,0,0,.08.37.46.46,0,0,0,.32.11,1.39,1.39,0,0,0,.35,0v.71a3.76,3.76,0,0,1-.6.06c-.75,0-1-.27-1-.85V22.61h-.51Z"/><path class="cls-1" d="M94.32,25.52v-.36a1.6,1.6,0,0,1-1.13.44,1.12,1.12,0,0,1-1-.46,1.58,1.58,0,0,1-.2-.92V22h.85v2c0,.34.08.78.69.78a.75.75,0,0,0,.68-.39,1.91,1.91,0,0,0,.13-.84V22h.84v3.5Z"/><path class="cls-1" d="M95.65,22h.51V20.77H97V22h.75v.6H97v1.74a.57.57,0,0,0,.08.37.46.46,0,0,0,.32.11,1.39,1.39,0,0,0,.35,0v.71a3.74,3.74,0,0,1-.6.06c-.75,0-1-.27-1-.85V22.61h-.51Z"/><path class="cls-1" d="M98.94,23.94a1,1,0,0,0,1,.87,1,1,0,0,0,.92-.48l.71.41a2,2,0,0,1-1.71.89,1.74,1.74,0,0,1-1.8-1.88,1.69,1.69,0,0,1,1.76-1.84c1.34,0,1.72,1.07,1.72,2Zm1.67-.62a.76.76,0,0,0-.79-.74.84.84,0,0,0-.85.74Z"/></g></g></svg>